<svg height="102.10372500349636" width="373.8947368421052" style="width: 373.895px; height: 102.104px; z-index: 0; cursor: pointer; overflow: visible;"><defs id="SvgjsDefs1001"></defs><g id="SvgjsG1007" featurekey="HKaMnE-0" transform="matrix(1.0233958035650077,0,0,1.0233958035650077,-9.000676099167809,4.881872734300803)" fill="#3b5192"><g xmlns="http://www.w3.org/2000/svg"><path d="M42.817,43.713c-2.543,2.415-6.376,2.188-8.789-0.364c-2.29-2.409-2.315-6.254,0.228-8.663   c2.423-2.289,6.376-2.188,8.671,0.229C45.343,37.459,45.231,41.418,42.817,43.713 M64.765,66.849   c-2.54,2.409-6.379,2.181-8.68-0.233c-2.404-2.546-2.302-6.248,0.239-8.669c2.414-2.29,6.253-2.312,8.662,0.228   C67.282,60.595,67.18,64.553,64.765,66.849"></path><path d="M55.196,55.787c-3.024,2.871-7.598,2.592-10.315-0.273c-2.876-3.023-2.888-7.592,0.131-10.457   c2.871-2.728,7.586-2.603,10.446,0.422C58.187,48.355,58.061,53.06,55.196,55.787"></path><path d="M32.499,54.221c-1.902,1.801-5,1.607-6.809-0.301c-1.809-1.914-1.726-4.882,0.185-6.688   c1.905-1.811,4.998-1.856,6.806,0.052C34.493,49.191,34.41,52.41,32.499,54.221"></path><path d="M51.665,74.429c-1.902,1.812-4.875,1.731-6.681-0.171c-1.814-1.907-1.854-5.012,0.057-6.817   c1.902-1.816,5.126-1.72,6.932,0.183C53.783,69.531,53.573,72.624,51.665,74.429"></path><g><path d="M27.892,15.099c-0.84-0.883-0.803-2.37,0.213-3.338c0.889-0.843,2.375-0.809,3.224,0.08    c0.966,1.025,0.929,2.5,0.032,3.349C30.349,16.158,28.863,16.118,27.892,15.099"></path><path d="M11.468,30.494c-0.843-0.889-0.8-2.364,0.088-3.213c1.022-0.969,2.5-0.928,3.349-0.045    c0.962,1.02,0.925,2.506-0.094,3.474C13.92,31.553,12.434,31.52,11.468,30.494"></path><path d="M5.85,22.719c-0.689-0.723-0.655-1.93,0.065-2.619c0.832-0.792,2.042-0.764,2.729-0.029    c0.789,0.826,0.754,2.028-0.077,2.814C7.846,23.574,6.636,23.551,5.85,22.719"></path><path d="M20.732,8.207c-0.692-0.729-0.658-1.931,0.068-2.626c0.826-0.786,2.036-0.751,2.725-0.028    c0.786,0.832,0.752,2.039-0.077,2.825C22.726,9.067,21.516,9.039,20.732,8.207"></path><path d="M9.529,11.208c-0.846-0.894-0.803-2.381,0.08-3.229c0.889-0.837,2.381-0.797,3.232,0.097    c0.954,1.008,0.915,2.5,0.026,3.343C11.978,12.262,10.492,12.217,9.529,11.208"></path><path d="M35.521,23.949c-1.449-1.521-1.256-3.867,0.146-5.194c1.523-1.446,3.748-1.39,5.194,0.132    c1.327,1.406,1.267,3.633-0.25,5.074C39.206,25.299,36.851,25.356,35.521,23.949"></path><path d="M18.106,40.467c-1.444-1.521-1.384-3.754,0.137-5.195c1.401-1.32,3.753-1.389,5.2,0.137    c1.324,1.402,1.145,3.754-0.256,5.075C21.661,41.93,19.434,41.873,18.106,40.467"></path><path d="M16.221,20.811c-1.327-1.4-1.139-3.753,0.253-5.08c1.527-1.446,3.756-1.384,5.081,0.018    c1.453,1.521,1.396,3.753-0.134,5.199C20.023,22.275,17.671,22.338,16.221,20.811"></path><path d="M24.976,31.57c-1.8-1.902-1.598-4.99,0.305-6.807c1.917-1.811,4.89-1.726,6.692,0.183    c1.811,1.902,1.856,5.001-0.057,6.812C30.007,33.569,26.79,33.479,24.976,31.57"></path></g><g><path d="M84.46,72.595c0.871,0.866,2.357,0.854,3.337-0.142c0.866-0.872,0.854-2.358-0.017-3.219    c-1.003-0.985-2.478-0.979-3.344-0.103C83.457,70.123,83.457,71.604,84.46,72.595"></path><path d="M68.717,88.696c0.878,0.86,2.358,0.854,3.225-0.017c0.99-1.003,0.979-2.483,0.113-3.35    c-1.002-0.979-2.494-0.968-3.475,0.023C67.715,86.225,67.727,87.711,68.717,88.696"></path><path d="M76.378,94.478c0.712,0.7,1.919,0.694,2.626-0.012c0.809-0.809,0.797-2.021,0.085-2.723    c-0.814-0.803-2.021-0.803-2.831,0.012C75.563,92.467,75.563,93.675,76.378,94.478"></path><path d="M91.197,79.908c0.712,0.695,1.926,0.695,2.626-0.022c0.809-0.81,0.798-2.022,0.091-2.723    c-0.814-0.809-2.027-0.798-2.83,0.022C90.383,77.892,90.383,79.105,91.197,79.908"></path><path d="M87.957,91.043c0.883,0.854,2.369,0.849,3.234-0.022c0.86-0.866,0.854-2.364-0.022-3.224    c-0.991-0.98-2.483-0.975-3.349-0.103C86.96,88.565,86.978,90.058,87.957,91.043"></path><path d="M75.769,64.786c1.486,1.481,3.839,1.339,5.194-0.028c1.48-1.492,1.469-3.719-0.023-5.194    c-1.378-1.361-3.604-1.35-5.08,0.143C74.504,61.079,74.39,63.437,75.769,64.786"></path><path d="M58.887,81.856c1.492,1.48,3.719,1.464,5.206-0.029c1.35-1.378,1.458-3.719-0.034-5.199    c-1.379-1.355-3.726-1.23-5.081,0.147C57.509,78.273,57.52,80.501,58.887,81.856"></path><path d="M78.508,84.146c1.367,1.361,3.725,1.219,5.075-0.147c1.486-1.504,1.469-3.726,0.097-5.081    c-1.492-1.475-3.726-1.47-5.2,0.028C77.118,80.312,77.01,82.676,78.508,84.146"></path><path d="M67.92,75.164c1.868,1.851,4.967,1.708,6.823-0.16c1.846-1.868,1.822-4.841-0.046-6.691    c-1.868-1.852-4.966-1.96-6.812-0.086C66.029,70.101,66.052,73.318,67.92,75.164"></path></g><path d="M53.373,34.127c1.88-1.84,1.8-4.943-0.034-6.817c-1.845-1.88-4.812-1.913-6.692-0.073   c-1.882,1.834-2.042,4.926-0.205,6.806C48.282,35.922,51.505,35.961,53.373,34.127"></path><path d="M72.841,54.051c1.88-1.834,1.919-4.812,0.091-6.688c-1.845-1.885-4.943-2.039-6.823-0.205   c-1.879,1.834-1.913,5.059-0.079,6.938C67.863,55.976,70.961,55.891,72.841,54.051"></path><path d="M56.176,42.927c-2.409-2.546-2.188-6.384,0.364-8.788c2.415-2.289,6.254-2.312,8.669,0.229   c2.278,2.414,2.176,6.379-0.239,8.662C62.43,45.444,58.477,45.336,56.176,42.927 M33.041,64.866   c-2.407-2.54-2.179-6.379,0.236-8.663c2.54-2.414,6.256-2.318,8.663,0.223c2.292,2.415,2.315,6.259-0.225,8.668   C39.294,67.39,35.335,67.287,33.041,64.866"></path><g><path d="M84.79,27.999c0.889-0.843,2.381-0.798,3.338,0.21c0.843,0.895,0.797,2.376-0.08,3.219    c-1.02,0.975-2.506,0.934-3.349,0.04C83.73,30.453,83.776,28.967,84.79,27.999"></path><path d="M69.39,11.584c0.888-0.843,2.381-0.809,3.224,0.08c0.968,1.02,0.923,2.494,0.034,3.35    c-1.014,0.968-2.506,0.922-3.469-0.092C68.336,14.021,68.376,12.547,69.39,11.584"></path><path d="M77.17,5.957c0.723-0.689,1.936-0.655,2.625,0.068c0.786,0.832,0.758,2.034,0.023,2.723    C78.998,9.54,77.79,9.5,76.999,8.674C76.31,7.945,76.344,6.743,77.17,5.957"></path><path d="M91.682,20.834c0.729-0.684,1.937-0.654,2.626,0.068c0.78,0.832,0.752,2.045,0.028,2.729    c-0.832,0.785-2.039,0.752-2.825-0.074C90.827,22.833,90.851,21.62,91.682,20.834"></path><path d="M88.686,9.637c0.889-0.849,2.375-0.809,3.219,0.08c0.849,0.889,0.803,2.381-0.086,3.224    c-1.014,0.957-2.506,0.923-3.349,0.034C87.632,12.091,87.672,10.599,88.686,9.637"></path><path d="M75.939,35.625c1.515-1.44,3.873-1.253,5.2,0.148c1.44,1.521,1.384,3.742-0.143,5.194    c-1.396,1.327-3.623,1.265-5.075-0.257C74.595,39.316,74.538,36.952,75.939,35.625"></path><path d="M59.422,18.214c1.521-1.44,3.748-1.39,5.2,0.137c1.327,1.401,1.384,3.748-0.143,5.2c-1.4,1.327-3.747,1.145-5.074-0.256    C57.964,21.768,58.021,19.541,59.422,18.214"></path><path d="M79.071,16.328c1.407-1.332,3.76-1.139,5.093,0.257c1.446,1.521,1.378,3.753-0.018,5.081    c-1.532,1.446-3.759,1.395-5.2-0.137C77.619,20.133,77.557,17.775,79.071,16.328"></path><path d="M68.312,25.088c1.908-1.799,5.001-1.6,6.812,0.303c1.806,1.914,1.72,4.881-0.183,6.687    c-1.908,1.812-5.001,1.856-6.812-0.052C66.325,30.117,66.41,26.9,68.312,25.088"></path></g><g><path d="M27.291,84.562c-0.866,0.877-0.852,2.363,0.14,3.343c0.877,0.866,2.364,0.86,3.227-0.017    c0.988-0.997,0.977-2.483,0.105-3.344C29.766,83.564,28.285,83.564,27.291,84.562"></path><path d="M11.189,68.83c-0.854,0.872-0.854,2.358,0.022,3.219c1,0.99,2.48,0.979,3.349,0.107c0.985-0.996,0.968-2.483-0.02-3.474    C13.664,67.816,12.178,67.834,11.189,68.83"></path><path d="M5.408,76.485c-0.7,0.718-0.695,1.919,0.012,2.625c0.817,0.81,2.03,0.798,2.728,0.086c0.812-0.809,0.8-2.021-0.017-2.825    C7.422,75.671,6.211,75.677,5.408,76.485"></path><path d="M19.986,91.311c-0.701,0.712-0.698,1.914,0.014,2.62c0.812,0.803,2.022,0.798,2.725,0.091c0.8-0.82,0.8-2.027-0.02-2.824    C21.997,90.49,20.789,90.49,19.986,91.311"></path><path d="M8.849,88.075c-0.857,0.872-0.857,2.358,0.02,3.229c0.868,0.854,2.36,0.849,3.226-0.028    c0.971-0.991,0.968-2.483,0.103-3.349C11.323,87.073,9.834,87.085,8.849,88.075"></path><path d="M35.102,75.87c-1.478,1.492-1.341,3.845,0.029,5.2c1.5,1.48,3.725,1.469,5.2-0.023c1.361-1.378,1.347-3.604-0.148-5.08    C38.815,74.605,36.455,74.497,35.102,75.87"></path><path d="M18.033,58.994c-1.478,1.498-1.461,3.725,0.028,5.2c1.378,1.355,3.725,1.464,5.2-0.028    c1.355-1.373,1.23-3.726-0.143-5.081C21.624,57.61,19.388,57.621,18.033,58.994"></path><path d="M15.746,78.609c-1.364,1.373-1.222,3.73,0.146,5.086c1.495,1.476,3.722,1.464,5.081,0.098    c1.483-1.51,1.472-3.731-0.026-5.212C19.576,77.231,17.218,77.117,15.746,78.609"></path><path d="M24.719,68.027c-1.845,1.874-1.703,4.973,0.165,6.817c1.871,1.856,4.847,1.828,6.687-0.04    c1.851-1.868,1.962-4.966,0.094-6.812C29.791,66.142,26.57,66.165,24.719,68.027"></path></g></g></g><g id="SvgjsG1008" featurekey="J3GnXt-0" transform="matrix(3.710714415979747,0,0,3.710714415979747,108.51192646724374,11.891713225361272)" fill="#444f5a"><path d="M8.34 5.48 c2.36 0 4.1134 0.6133 5.26 1.84 l-1.36 1.46 c-1.0533 -1 -2.36 -1.5 -3.92 -1.5 s-2.84 0.53666 -3.84 1.61 s-1.5 2.4166 -1.5 4.03 c0 1.6267 0.53 2.9734 1.59 4.04 s2.3634 1.6 3.91 1.6 c1.4667 0 2.6266 -0.24666 3.48 -0.74 l0 -3.94 l-3.14 0 l0 -1.8 l5.06 0 l0 6.98 c-0.69334 0.41334 -1.53 0.73334 -2.51 0.96 s-1.93 0.34 -2.85 0.34 c-2.2266 0 -4.0466 -0.69334 -5.46 -2.08 s-2.12 -3.1734 -2.12 -5.36 c0 -2.1066 0.69666 -3.8734 2.09 -5.3 s3.1634 -2.14 5.31 -2.14 z M21.26 10.28 c1.4533 0 2.5834 0.45664 3.39 1.37 s1.2167 2.17 1.23 3.77 l0 0.5 l-7.6 0 c0 0.77334 0.31 1.4233 0.93 1.95 s1.3767 0.79666 2.27 0.81 c0.98666 0 1.8533 -0.47334 2.6 -1.42 l1.36 1.04 c-1.0133 1.2933 -2.4134 1.94 -4.2 1.94 c-1.4533 0 -2.6234 -0.46334 -3.51 -1.39 s-1.3433 -2.1234 -1.37 -3.59 c0 -1.4133 0.45666 -2.59 1.37 -3.53 s2.09 -1.4233 3.53 -1.45 z M23.96 14.48 c-0.02666 -0.89334 -0.28 -1.5767 -0.76 -2.05 s-1.14 -0.71 -1.98 -0.71 c-0.56 0 -1.0633 0.13666 -1.51 0.41 s-0.79666 0.62668 -1.05 1.06 s-0.38 0.86334 -0.38 1.29 l5.68 0 z M29.84 4.880000000000001 l0.000019531 7 l0.04 0 c0.32 -0.49334 0.78334 -0.88334 1.39 -1.17 s1.2433 -0.43 1.91 -0.43 c1.4267 0 2.5866 0.47 3.48 1.41 s1.34 2.13 1.34 3.57 c0 1.4267 -0.43666 2.6066 -1.31 3.54 s-2.0366 1.4133 -3.49 1.44 c-0.65334 0 -1.2833 -0.14 -1.89 -0.42 s-1.0833 -0.67334 -1.43 -1.18 l-0.04 0 l0 1.36 l-1.8 0 l0 -15.12 l1.8 0 z M29.84 15.26 c0 0.98666 0.28338 1.7767 0.85004 2.37 s1.3233 0.90334 2.27 0.93 c0.94666 0 1.7033 -0.30666 2.27 -0.92 s0.85 -1.4067 0.85 -2.38 s-0.28 -1.7633 -0.84 -2.37 s-1.3267 -0.91666 -2.3 -0.93 c-0.94666 0 -1.7 0.31 -2.26 0.93 s-0.84 1.41 -0.84 2.37 z M44.839999999999996 10.28 c1.4 0 2.5866 0.48338 3.56 1.45 s1.4667 2.1434 1.48 3.53 c0 1.4 -0.48666 2.5734 -1.46 3.52 s-2.1666 1.4333 -3.58 1.46 c-1.3867 0 -2.5666 -0.48 -3.54 -1.44 s-1.4733 -2.14 -1.5 -3.54 c0 -1.3733 0.48334 -2.54 1.45 -3.5 s2.1634 -1.4533 3.59 -1.48 z M41.72 15.26 c0 0.97334 0.28664 1.7633 0.85998 2.37 s1.3267 0.91666 2.26 0.93 c0.94666 0 1.7 -0.30334 2.26 -0.91 s0.84666 -1.4033 0.86 -2.39 c0 -0.97334 -0.28 -1.7633 -0.84 -2.37 s-1.3267 -0.91666 -2.3 -0.93 c-0.94666 0 -1.7 0.31334 -2.26 0.94 s-0.84 1.4133 -0.84 2.36 z M53.56 17.48 c0.37334 0 0.68664 0.13342 0.93998 0.40008 s0.38 0.57332 0.38 0.91998 c0 0.38666 -0.13334 0.70332 -0.4 0.94998 s-0.57332 0.37 -0.91998 0.37 s-0.65332 -0.12666 -0.91998 -0.38 s-0.4 -0.56668 -0.4 -0.94002 s0.13334 -0.68668 0.4 -0.94002 s0.57332 -0.38 0.91998 -0.38 z M61.5 10.28 c1.2 0 2.15 0.27328 2.85 0.81994 s1.07 1.3067 1.11 2.28 l0 5.08 c0 0.48 0.02666 0.99334 0.08 1.54 l-1.6 0 c-0.04 -0.42666 -0.06 -0.90666 -0.06 -1.44 l-0.04 0 c-0.41334 0.61334 -0.89 1.0467 -1.43 1.3 s-1.17 0.38 -1.89 0.38 c-0.97334 0 -1.7633 -0.26 -2.37 -0.78 s-0.91 -1.2067 -0.91 -2.06 c0 -1.08 0.45334 -1.8967 1.36 -2.45 s2.1866 -0.83 3.84 -0.83 l1.34 0 l0 -0.34 c0 -0.64 -0.21 -1.1433 -0.63 -1.51 s-0.97 -0.55 -1.65 -0.55 c-0.50666 0 -0.95 0.07666 -1.33 0.23 s-0.83 0.43668 -1.35 0.85002 l-1.08 -1.12 c1.0267 -0.90666 2.28 -1.3733 3.76 -1.4 z M59.040000000000006 17.259999999999998 c0 1.0267 0.68002 1.54 2.04 1.54 c0.81334 0 1.4633 -0.24334 1.95 -0.73 s0.73666 -1.19 0.75 -2.11 l0 -0.52 l-1.02 0 c-1.1733 0 -2.0866 0.15 -2.74 0.45 s-0.98 0.75666 -0.98 1.37 z M69.12 5.800000000000001 c0.36 0 0.67002 0.13002 0.93002 0.39002 s0.39 0.57 0.39 0.93 c0 0.37334 -0.13334 0.68668 -0.4 0.94002 s-0.57332 0.38 -0.91998 0.38 c-0.37334 0 -0.68668 -0.12666 -0.94002 -0.38 s-0.38 -0.56668 -0.38 -0.94002 s0.13334 -0.68668 0.4 -0.94002 s0.57332 -0.38 0.91998 -0.38 z M70.02 10.52 l0 9.48 l-1.8 0 l0 -9.48 l1.8 0 z"></path></g></svg>